<?xml version="1.0" encoding="UTF-8"?>
<!DOCTYPE svg PUBLIC "-//W3C//DTD SVG 1.1//EN" "http://www.w3.org/Graphics/SVG/1.1/DTD/svg11.dtd">
<svg xmlns="http://www.w3.org/2000/svg" version="1.1" width="1789px" height="1125px" style="shape-rendering:geometricPrecision; text-rendering:geometricPrecision; image-rendering:optimizeQuality; fill-rule:evenodd; clip-rule:evenodd" xmlns:xlink="http://www.w3.org/1999/xlink">
<g><path style="opacity:1" fill="#48011e" d="M 532.5,51.5 C 770.167,51.3333 1007.83,51.5 1245.5,52C 1317.88,61.0812 1369.38,98.5812 1400,164.5C 1407.49,182.448 1412.15,201.114 1414,220.5C 1414.67,449.167 1414.67,677.833 1414,906.5C 1405.21,979.291 1367.71,1031.12 1301.5,1062C 1283.55,1069.49 1264.88,1074.15 1245.5,1076C 1007.83,1076.67 770.167,1076.67 532.5,1076C 460.122,1066.92 408.622,1029.42 378,963.5C 370.512,945.55 365.846,926.883 364,907.5C 363.009,675.481 363.342,443.481 365,211.5C 376.777,143.404 413.944,94.9038 476.5,66C 494.64,58.6328 513.306,53.7994 532.5,51.5 Z"/></g>
<g><path style="opacity:1" fill="#fe3265" d="M 1045.5,275.5 C 1075.52,276.123 1105.36,276.123 1135,275.5C 1136,276.5 1137,277.5 1138,278.5C 1138.17,424.736 1138.67,570.903 1139.5,717C 1139.17,718 1138.83,719 1138.5,720C 1139.13,729.488 1140.13,739.155 1141.5,749C 1140.67,750.816 1139.84,752.649 1139,754.5C 1111.63,766.468 1083.13,774.635 1053.5,779C 1021.49,783.924 989.152,784.258 956.5,780C 902.676,771.872 861.842,744.705 834,698.5C 822.064,675.574 815.564,651.407 814.5,626C 807.692,558.943 830.026,503.61 881.5,460C 914.586,434.974 951.752,421.474 993,419.5C 1004.19,417.827 1013.86,417.16 1022,417.5C 1028.37,418.484 1034.54,419.15 1040.5,419.5C 1040.33,372.499 1040.5,325.499 1041,278.5C 1042.31,277.103 1043.81,276.103 1045.5,275.5 Z"/></g>
<g><path style="opacity:1" fill="#fd3265" d="M 651.5,313.5 C 681.502,313.333 711.502,313.5 741.5,314C 743.333,314.5 744.5,315.667 745,317.5C 745.667,469.167 745.667,620.833 745,772.5C 744.348,774.723 742.848,775.89 740.5,776C 710.833,776.667 681.167,776.667 651.5,776C 649.667,775.5 648.5,774.333 648,772.5C 647.333,620.833 647.333,469.167 648,317.5C 648.69,315.65 649.856,314.316 651.5,313.5 Z"/></g>
<g><path style="opacity:1" fill="#48021e" d="M 1006.5,499.5 C 1017.66,499.413 1029,500.413 1040.5,502.5C 1040.83,566.837 1040.5,631.17 1039.5,695.5C 953.134,708.984 911.134,671.818 913.5,584C 920.208,541.284 944.541,514.284 986.5,503C 993.289,501.703 999.956,500.536 1006.5,499.5 Z"/></g>
</svg>
